# xmcd
#
# Track frame offsets: 
#        150
#        14984
#        36874
#        52012
#        90441
#        102885
#        115062
#        126100
#        140674
#        157956
#        169597
#
# Disc length: 2530 seconds
#
# Revision: 0
# Processed by: cddbd v1.5.2PL0 Copyright (c) Steve Scherf et al.
# Submitted via: ExactAudioCopy v1.0b1
#
DISCID=8f09e00b
DTITLE=Willie Nelson - Willie Nelson - The Box Set Series - CD2
DYEAR=1900
DGENRE=Country
TTITLE0=Nothing I Can Do About It Now
TTITLE1=City Of New Orleans
TTITLE2=Living In The Promiseland
TTITLE3=Medley - Funny How Time Slips Away - Crazy - Night Life
TTITLE4=It Should Be Easier Now
TTITLE5=You Ought To Hear Me Cry
TTITLE6=The Party's Over
TTITLE7=Yesterday's Wine
TTITLE8=Me and Paul
TTITLE9=On The Road Again
TTITLE10=Angel Flying Too Close To The Ground
EXTD=
EXTT0=
EXTT1=
EXTT2=
EXTT3=
EXTT4=
EXTT5=
EXTT6=
EXTT7=
EXTT8=
EXTT9=
EXTT10=
PLAYORDER=
